<svg xmlns="http://www.w3.org/2000/svg" viewBox="0 0 448.61 69.31"><g><g><path d="M58.71,23.8c0,6.7.11,13.41,0,20.11A27.42,27.42,0,0,1,54,59.37a21.49,21.49,0,0,1-11.74,8.22c-6.42,2-13,2-19.59,1.26A26.28,26.28,0,0,1,9.58,64,19.55,19.55,0,0,1,2.26,53.73c-.74-2.55-.95-5.26-1.72-7.79S.07,40.65.06,38C0,26.48,0,14.94,0,3.41,0,2,.34,1.65,1.79,1.65c4.27,0,8.55,0,12.83,0,1.26,0,1.19.69,1.19,1.54q0,18.85,0,37.71a21.56,21.56,0,0,0,1.49,8.66,10.6,10.6,0,0,0,6.75,6.16,17.56,17.56,0,0,0,10.94,0,10.08,10.08,0,0,0,7.15-7.26,33.22,33.22,0,0,0,1.09-8c.12-12.46.06-24.91,0-37.36,0-1.12.39-1.47,1.46-1.46,4.24,0,8.48,0,12.71,0,1,0,1.29.38,1.29,1.33C58.69,9.91,58.71,16.85,58.71,23.8Z"/><path d="M96,69.29c-7.68.12-15.15-.67-21.69-5.28a24.52,24.52,0,0,1-6.26-6.7.93.93,0,0,1,.28-1.43l8.72-6.53c.69-.53,1-.19,1.42.4a18.94,18.94,0,0,0,6.29,6.11,19.72,19.72,0,0,0,11.77,2.35,15.3,15.3,0,0,0,6.36-1.5,6.77,6.77,0,0,0,3.67-6.51,6,6,0,0,0-4.23-5.7,109.73,109.73,0,0,0-10.55-3.06c-5.11-1.25-10.09-2.73-14.36-5.95a17.47,17.47,0,0,1-6.84-10.72,20.17,20.17,0,0,1,.83-11.86A18.91,18.91,0,0,1,82.17,2.4C88.24-.19,94.61-.36,101,.38c5.27.6,10.25,2.27,14.17,6.05a40.3,40.3,0,0,1,4.23,5.3,1.29,1.29,0,0,1-.3,1.25c-3,2.13-6.12,4.19-9.21,6.26-.74.5-1-.19-1.44-.6a38.51,38.51,0,0,0-4.31-4.26c-3.16-2.33-6.9-2.85-10.72-2.47A16,16,0,0,0,88,13.22a6.52,6.52,0,0,0-.42,11.58,21.32,21.32,0,0,0,5.49,2.26c4.23,1.18,8.58,1.93,12.75,3.27,5,1.59,9.62,4,12.67,8.52a16.34,16.34,0,0,1,2.68,8.67,21.18,21.18,0,0,1-2,10.68,17.91,17.91,0,0,1-8.58,8A34.16,34.16,0,0,1,96,69.29Z"/><path d="M154.84,1.66H181c1.72,0,1.76,0,1.75,1.72v9.45c0,1.59-.1,1.72-1.68,1.72H164.39c-1.83,0-1.83,0-1.83,1.88V65.38c0,.4,0,.8,0,1.2.05.81-.28,1.14-1.12,1.14q-6.47,0-12.94,0c-1,0-1.39-.39-1.38-1.43,0-8.06,0-16.12,0-24.18V16.5c0-1.85-.11-2-2-1.95-5.6,0-11.19,0-16.79,0-1,0-1.36-.35-1.35-1.33,0-3.39,0-6.78,0-10.17,0-1.1.34-1.45,1.45-1.45,8.79,0,17.58,0,26.37,0Z"/><path d="M401.12,34.64V3.28c0-1.78,0-1.77,1.82-1.77h42.45c1.74,0,1.79,0,1.79,1.83,0,3.34.29,3-2.93,3q-18.22,0-36.46,0c-1.06,0-1.41.37-1.41,1.39q0,11.73,0,23.46c0,1,.3,1.33,1.32,1.32q16.24,0,32.49,0c2,0,2,0,2,1.9,0,2.75.33,2.76-2.7,2.75-10.56,0-21.11,0-31.66,0-1.06,0-1.41.37-1.41,1.39q0,11.61,0,23.23c0,1.1.4,1.43,1.49,1.42q19.25,0,38.5,0c1.88,0,2.24.34,2.24,2.2,0,2.4-.2,2.6-2.57,2.6q-21.65,0-43.29,0c-1.56,0-1.63-.06-1.63-1.61Z"/><path d="M296.88,52.83c-4.92,0-9.83,0-14.75,0a1.43,1.43,0,0,0-1.63,1c-1.17,3.39-2.38,6.76-3.57,10.14a24.54,24.54,0,0,1-1,2.79,1.83,1.83,0,0,1-1.22.89c-1.23.12-2.47,0-3.71,0-.9,0-1.12-.42-.84-1.23.87-2.43,1.71-4.87,2.59-7.3,1.15-3.18,2.33-6.36,3.5-9.53,1.42-3.89,2.86-7.77,4.26-11.66,1.58-4.38,3.13-8.77,4.71-13.16,1.19-3.28,2.42-6.56,3.61-9.84,1.1-3,2.16-6.08,3.24-9.11.37-1,.83-2.08,1.15-3.14A1.54,1.54,0,0,1,295,1.49c1.47.08,3,0,4.43,0A1.43,1.43,0,0,1,301,2.59c1.36,3.9,2.77,7.79,4.16,11.68s2.84,8,4.28,11.92c2.12,5.83,4.28,11.65,6.4,17.49,1.39,3.85,2.72,7.72,4.12,11.57s2.72,7.48,4.13,11.2c.35.93.11,1.27-.83,1.26h-2.88c-1.89,0-1.91,0-2.55-1.77q-2.08-5.85-4.15-11.7a1.87,1.87,0,0,0-2-1.43C306.71,52.86,301.8,52.83,296.88,52.83ZM297.13,8h-.4a8.59,8.59,0,0,0-.44.92q-2.15,6-4.27,12c-1.35,3.83-2.67,7.66-4,11.49-1.67,4.72-3.38,9.43-5.05,14.16-.55,1.56-.48,1.63,1.22,1.63H309.7c.32,0,.72.1.94,0s.57-.63.51-.88a22.91,22.91,0,0,0-.82-2.37c-1.08-3-2.17-6-3.23-9-1.15-3.22-2.27-6.46-3.41-9.68q-2.47-7-5-13.95C298.21,10.84,297.67,9.4,297.13,8Z"/><path d="M216.59,34.56V3.32c0-1.77,0-1.81,1.8-1.81,7.07,0,14.15-.1,21.22,0a55.71,55.71,0,0,1,10.33,1C255.66,3.74,260,7,262,12.7a28.63,28.63,0,0,1-.18,19.45,16.24,16.24,0,0,1-10.3,10,27.18,27.18,0,0,1-9.64,1.55c-6.15-.06-12.3,0-18.46,0-1,0-1.39.33-1.38,1.37,0,7,0,14,0,21.06,0,1.61,0,1.62-1.59,1.61-.84,0-1.68,0-2.51,0-1,.06-1.35-.34-1.34-1.33,0-4.11,0-8.21,0-12.32Zm5.42-12c0,5,0,10,0,15.08,0,1,.32,1.4,1.39,1.39,5.84,0,11.68.11,17.51-.08a29.42,29.42,0,0,0,7.73-1.28c5-1.53,7.58-5.35,8.69-10.22a23.64,23.64,0,0,0,0-10.32A12.38,12.38,0,0,0,252.2,9c-3-2-6.53-2.59-10.06-2.66-6.19-.12-12.39,0-18.58,0-1.45,0-1.54.08-1.55,1.57Z"/><path d="M361.37.93a29.76,29.76,0,0,1,11.34,1.52,20.68,20.68,0,0,1,11.75,9.64A1.11,1.11,0,0,1,384,13.8c-.89.52-1.74,1.12-2.58,1.73s-1.09.37-1.51-.37a17.64,17.64,0,0,0-6.38-6.82,19.39,19.39,0,0,0-9.44-2.72,48.5,48.5,0,0,0-9.17.48c-6.77,1-11.5,4.8-14.14,11.14a37.69,37.69,0,0,0-2.68,14.48,112.06,112.06,0,0,0,.58,12.15,24.32,24.32,0,0,0,5.2,13.28,16.77,16.77,0,0,0,11.06,6.09,51.19,51.19,0,0,0,8.56.52c7.47-.28,13.46-3.34,17.37-9.93.7-1.17,1.07-1.84,2.43-.51a1.32,1.32,0,0,0,.2.12c2.74,1.83,2.93,1.38.92,4.39a22.79,22.79,0,0,1-15.66,10,42.31,42.31,0,0,1-16.89-.28c-7.75-1.76-13.33-6.21-16.37-13.69a42.49,42.49,0,0,1-3-16.36c0-4.14.07-8.3.5-12.42A30.64,30.64,0,0,1,337.83,11,21.22,21.22,0,0,1,349.9,2.3,34.12,34.12,0,0,1,361.37.93Z"/></g></g></svg>
